<mxfile host="app.diagrams.net" modified="2020-07-23T00:32:02.132Z" agent="5.0 (Windows NT 10.0; Win64; x64) AppleWebKit/537.36 (KHTML, like Gecko) Chrome/83.0.4103.116 Safari/537.36" etag="WIoAPq0CjrHriT2XY50M" version="13.5.1" type="github">
  <diagram id="e5_Fyzuua8fhGybDT4Sh" name="第 1 页">
    <mxGraphModel dx="985" dy="615" grid="1" gridSize="10" guides="1" tooltips="1" connect="1" arrows="1" fold="1" page="1" pageScale="1" pageWidth="827" pageHeight="1169" math="0" shadow="0">
      <root>
        <mxCell id="0" />
        <mxCell id="1" parent="0" />
        <mxCell id="wAZkasckWyHo5SQaiHIw-28" value="" style="group" vertex="1" connectable="0" parent="1">
          <mxGeometry x="150" y="310" width="180" height="250" as="geometry" />
        </mxCell>
        <mxCell id="wAZkasckWyHo5SQaiHIw-14" value="promotion_serial_number" style="shape=table;startSize=30;container=1;collapsible=1;childLayout=tableLayout;fixedRows=1;rowLines=0;fontStyle=1;align=center;resizeLast=1;" vertex="1" parent="wAZkasckWyHo5SQaiHIw-28">
          <mxGeometry width="180" height="180" as="geometry" />
        </mxCell>
        <mxCell id="wAZkasckWyHo5SQaiHIw-15" value="" style="shape=partialRectangle;collapsible=0;dropTarget=0;pointerEvents=0;fillColor=none;top=0;left=0;bottom=0;right=0;points=[[0,0.5],[1,0.5]];portConstraint=eastwest;" vertex="1" parent="wAZkasckWyHo5SQaiHIw-14">
          <mxGeometry y="30" width="180" height="30" as="geometry" />
        </mxCell>
        <mxCell id="wAZkasckWyHo5SQaiHIw-16" value="PK" style="shape=partialRectangle;connectable=0;fillColor=none;top=0;left=0;bottom=0;right=0;fontStyle=1;overflow=hidden;" vertex="1" parent="wAZkasckWyHo5SQaiHIw-15">
          <mxGeometry width="60" height="30" as="geometry" />
        </mxCell>
        <mxCell id="wAZkasckWyHo5SQaiHIw-17" value="企業コード" style="shape=partialRectangle;connectable=0;fillColor=none;top=0;left=0;bottom=0;right=0;align=left;spacingLeft=6;fontStyle=5;overflow=hidden;" vertex="1" parent="wAZkasckWyHo5SQaiHIw-15">
          <mxGeometry x="60" width="120" height="30" as="geometry" />
        </mxCell>
        <mxCell id="wAZkasckWyHo5SQaiHIw-18" value="" style="shape=partialRectangle;collapsible=0;dropTarget=0;pointerEvents=0;fillColor=none;top=0;left=0;bottom=1;right=0;points=[[0,0.5],[1,0.5]];portConstraint=eastwest;" vertex="1" parent="wAZkasckWyHo5SQaiHIw-14">
          <mxGeometry y="60" width="180" height="30" as="geometry" />
        </mxCell>
        <mxCell id="wAZkasckWyHo5SQaiHIw-19" value="PK" style="shape=partialRectangle;connectable=0;fillColor=none;top=0;left=0;bottom=0;right=0;fontStyle=1;overflow=hidden;" vertex="1" parent="wAZkasckWyHo5SQaiHIw-18">
          <mxGeometry width="60" height="30" as="geometry" />
        </mxCell>
        <mxCell id="wAZkasckWyHo5SQaiHIw-20" value="企画ID" style="shape=partialRectangle;connectable=0;fillColor=none;top=0;left=0;bottom=0;right=0;align=left;spacingLeft=6;fontStyle=5;overflow=hidden;" vertex="1" parent="wAZkasckWyHo5SQaiHIw-18">
          <mxGeometry x="60" width="120" height="30" as="geometry" />
        </mxCell>
        <mxCell id="wAZkasckWyHo5SQaiHIw-21" value="" style="shape=partialRectangle;collapsible=0;dropTarget=0;pointerEvents=0;fillColor=none;top=0;left=0;bottom=0;right=0;points=[[0,0.5],[1,0.5]];portConstraint=eastwest;" vertex="1" parent="wAZkasckWyHo5SQaiHIw-14">
          <mxGeometry y="90" width="180" height="30" as="geometry" />
        </mxCell>
        <mxCell id="wAZkasckWyHo5SQaiHIw-22" value="" style="shape=partialRectangle;connectable=0;fillColor=none;top=0;left=0;bottom=0;right=0;editable=1;overflow=hidden;" vertex="1" parent="wAZkasckWyHo5SQaiHIw-21">
          <mxGeometry width="60" height="30" as="geometry" />
        </mxCell>
        <mxCell id="wAZkasckWyHo5SQaiHIw-23" value="企画名" style="shape=partialRectangle;connectable=0;fillColor=none;top=0;left=0;bottom=0;right=0;align=left;spacingLeft=6;overflow=hidden;" vertex="1" parent="wAZkasckWyHo5SQaiHIw-21">
          <mxGeometry x="60" width="120" height="30" as="geometry" />
        </mxCell>
        <mxCell id="wAZkasckWyHo5SQaiHIw-24" value="" style="shape=partialRectangle;collapsible=0;dropTarget=0;pointerEvents=0;fillColor=none;top=0;left=0;bottom=0;right=0;points=[[0,0.5],[1,0.5]];portConstraint=eastwest;" vertex="1" parent="wAZkasckWyHo5SQaiHIw-14">
          <mxGeometry y="120" width="180" height="30" as="geometry" />
        </mxCell>
        <mxCell id="wAZkasckWyHo5SQaiHIw-25" value="" style="shape=partialRectangle;connectable=0;fillColor=none;top=0;left=0;bottom=0;right=0;editable=1;overflow=hidden;" vertex="1" parent="wAZkasckWyHo5SQaiHIw-24">
          <mxGeometry width="60" height="30" as="geometry" />
        </mxCell>
        <mxCell id="wAZkasckWyHo5SQaiHIw-26" value="作成時間" style="shape=partialRectangle;connectable=0;fillColor=none;top=0;left=0;bottom=0;right=0;align=left;spacingLeft=6;overflow=hidden;" vertex="1" parent="wAZkasckWyHo5SQaiHIw-24">
          <mxGeometry x="60" width="120" height="30" as="geometry" />
        </mxCell>
        <mxCell id="wAZkasckWyHo5SQaiHIw-27" value="作成者" style="shape=partialRectangle;connectable=0;fillColor=none;top=0;left=0;bottom=0;right=0;align=left;spacingLeft=6;overflow=hidden;" vertex="1" parent="wAZkasckWyHo5SQaiHIw-28">
          <mxGeometry x="60" y="150" width="120" height="31.250000000000004" as="geometry" />
        </mxCell>
      </root>
    </mxGraphModel>
  </diagram>
</mxfile>
